<svg height="512pt" viewBox="-69 0 511 512" width="512pt" xmlns="http://www.w3.org/2000/svg"><path d="m87.390625 181.066406c.246094-.027344.484375-.066406.722656-.113281 1.941407 9.964844 4.605469 19.433594 7.984375 28.265625h182.390625c3.375-8.832031 6.039063-18.300781 7.984375-28.265625.238282.046875.476563.085937.722656.113281 8.816407.894532 17.402344-12.386718 19.175782-29.675781 1.769531-17.285156-3.945313-32.023437-12.761719-32.917969-1.34375-.136718-2.683594.058594-3.996094.546875-1.203125-14.769531-3.800781-28.789062-7.789062-41.675781h-189.128907c-3.949218 12.828125-6.527343 26.992188-7.722656 41.675781-1.3125-.488281-2.648437-.683593-3.996094-.546875-8.816406.894532-14.53125 15.632813-12.757812 32.917969 1.769531 17.289063 10.355469 30.570313 19.171875 29.675781zm0 0" fill="#fee2d8"/><path d="m92.695312 77.34375c-3.949218 12.828125-6.527343 26.992188-7.722656 41.675781-1.3125-.488281-2.648437-.683593-3.996094-.546875-8.816406.894532-14.53125 15.632813-12.757812 32.917969 1.769531 17.289063 10.355469 30.570313 19.171875 29.675781.246094-.027344.484375-.066406.726563-.113281 10.84375 55.667969 187.507812 55.667969 198.355468 0 .238282.046875.476563.085937.722656.113281 8.816407.894532 17.402344-12.386718 19.175782-29.675781 1.769531-17.285156-3.945313-32.023437-12.761719-32.917969-1.34375-.136718-2.683594.058594-3.996094.546875-1.203125-14.769531-3.800781-28.789062-7.789062-41.675781zm0 0" fill="#d0996f"/><path d="m293.605469 118.472656c-1.34375-.136718-2.683594.0625-3.992188.546875-1.183593-14.527343-3.722656-28.332031-7.601562-41.046875h-42.175781c13.507812 42.496094 10.246093 94.113282-8.875 134.851563h46.101562c4.0625-9.84375 7.199219-20.539063 9.40625-31.867188.238281.046875.480469.085938.726562.109375 8.816407.894532 17.402344-12.386718 19.171876-29.675781 1.773437-17.285156-3.945313-32.023437-12.761719-32.917969zm0 0" fill="#be8b5f"/><path d="m232.097656 361.582031c0 13.660157-8.121094 24.730469-18.144531 24.730469h-53.132813c-10.019531 0-18.144531-11.070312-18.144531-24.730469v-91.863281c0-13.660156 8.125-24.730469 18.144531-24.730469h53.132813c10.023437 0 18.144531 11.070313 18.144531 24.730469zm0 0" fill="#be8b5f"/><path d="m373.25 474.984375-24.585938-102.808594c-7.71875-25.398437-33.660156-57.527343-75.175781-57.527343h-41.375l-.0625.09375c-21.292969 31.738281-68.148437 31.691406-89.371093-.09375h-41.582032c-41.519531 0-64.5625 28.046874-75.179687 57.527343l-24.585938 102.808594c-4.519531 18.894531 9.9375 37.015625 29.527344 37.015625h312.867187c19.585938 0 34.042969-18.121094 29.523438-37.015625zm0 0" fill="#ffd778"/><path d="m373.25 474.984375-24.585938-102.808594c-7.71875-25.398437-33.660156-57.527343-75.175781-57.527343h-41.375l-.019531.03125c40.742188.675781 66.222656 32.371093 73.859375 57.496093l24.585937 102.808594c4.519532 18.894531-9.9375 37.015625-29.523437 37.015625h42.710937c19.585938 0 34.042969-18.121094 29.523438-37.015625zm0 0" fill="#fec250"/><path d="m250.636719 489.519531h-13.976563c-20.1875 0-36.554687-16.367187-36.554687-36.558593v-31.023438c0-4.757812 3.855469-8.613281 8.613281-8.613281h69.859375c4.757813 0 8.617187 3.859375 8.617187 8.613281v31.023438c0 20.191406-16.367187 36.558593-36.558593 36.558593zm0 0" fill="#8a7e88"/><path d="m287.195312 442.015625v-20.078125c0-4.757812-3.859374-8.613281-8.617187-8.613281h-69.859375c-4.757812 0-8.617188 3.855469-8.617188 8.613281v20.078125c.542969-.089844 86.554688-.089844 87.09375 0zm0 0" fill="#635562"/><path d="m289.707031 119.019531c-5.480469-67.261719-39.933593-119.019531-102.320312-119.019531-.015625 0-.03125 0-.046875 0s-.03125 0-.046875 0c-62.390625 0-96.839844 51.757812-102.320313 119.019531 11.101563 26.152344-2.957031 48.828125 3.140625 61.933594 10.785157 55.351563 42.082031 95.417969 96.558594 95.875l3.429687.066406c54.484376-.457031 87.679688-40.589843 98.464844-95.941406 6.097656-13.105469-7.964844-35.78125 3.140625-61.933594zm-33.074219 83.824219c-9.382812 3.890625-20.199218 1.402344-26.9375-6.195312l-2.953124-3.328126c-4.519532-5.097656-11.003907-8.011718-17.816407-8.011718h-43.175781c-6.808594 0-13.292969 2.914062-17.8125 8.011718l-2.953125 3.328126c-6.738281 7.597656-17.554687 10.085937-26.9375 6.195312-8.445313-3.503906-14.140625-11.53125-14.648437-20.660156l-3.714844-66.308594c-.570313-10.207031 5.652344-19.570312 15.296875-22.96875 14.417969-5.074219 38.496093-11 72.359375-11.007812 33.863281.007812 57.941406 5.933593 72.359375 11.007812 9.644531 3.398438 15.867187 12.761719 15.296875 22.96875l-3.714844 66.308594c-.511719 9.128906-6.203125 17.160156-14.648438 20.660156zm0 0" fill="#7f8194"/><path d="m289.707031 119.019531c-5.480469-67.261719-39.933593-119.019531-102.320312-119.019531-.015625 0-.03125 0-.046875 0s-.03125 0-.046875 0c-7.566407 0-14.71875.769531-21.464844 2.226562 39.851563 8.621094 65.285156 41.574219 75.917969 85.511719 7.082031 1.648438 13.082031 3.457031 17.953125 5.171875 9.644531 3.394532 15.867187 12.757813 15.296875 22.964844l-3.714844 66.308594c-.511719 9.128906-6.203125 17.160156-14.648438 20.660156-6.144531 2.550781-12.902343 2.34375-18.730468-.222656-12.363282 37.351562-36.695313 64.667968-72.71875 72.195312 6.132812 1.265625 12.625 1.957032 19.488281 2.011719l3.425781.066406c54.488282-.457031 87.683594-40.589843 98.46875-95.9375 6.097656-13.109375-7.964844-35.785156 3.140625-61.9375zm0 0" fill="#6e7081"/></svg>