<svg height="512pt" viewBox="-84 0 512 512" width="512pt" xmlns="http://www.w3.org/2000/svg"><path d="m172.390625 0c-153.996094 0-172.082031 417.285156-114.878906 418.285156 50.9375.890625 180.175781.894532 231.113281.015625 57.203125-1.007812 33.339844-418.300781-116.234375-418.300781zm0 0" fill="#ffd778"/><path d="m172.390625 0c-11.421875 0-22.089844 2.3125-32.042969 6.5625 121.445313 53.0625 137.980469 410.804688 85.015625 411.738281-19.292969.332031-49.828125.539063-83.085937.617188 54.121094.128906 115.03125-.074219 146.347656-.617188 57.203125-1.007812 33.339844-418.300781-116.234375-418.300781zm0 0" fill="#fec250"/><path d="m213.769531 372.707031c0 12.652344-7.511719 22.898438-16.78125 22.898438h-49.148437c-9.269532 0-16.78125-10.25-16.78125-22.898438v-85.066406c0-12.652344 7.511718-22.902344 16.78125-22.902344h49.148437c9.269531 0 16.78125 10.25 16.78125 22.902344zm0 0" fill="#ffd0c6"/><path d="m344.058594 477.722656-22.695313-95.207031c-7.125-23.519531-31.066406-53.269531-69.390625-53.269531h-38.1875l-29.683594 44.386718c-5.546874 8.296876-17.808593 8.285157-23.339843-.023437l-29.527344-44.363281h-38.378906c-38.324219 0-59.59375 25.972656-69.394531 53.269531l-22.691407 95.207031c-4.171875 17.496094 9.171875 34.277344 27.253907 34.277344h288.78125c18.082031 0 31.425781-16.78125 27.253906-34.277344zm0 0" fill="#787ebe"/><path d="m344.058594 477.722656-22.695313-95.207031c-7.125-23.519531-31.066406-53.269531-69.390625-53.269531h-38.1875l-.226562.335937c34.261718 3.332031 55.738281 30.875 62.421875 52.933594l22.695312 95.207031c4.171875 17.496094-9.171875 34.277344-27.253906 34.277344h45.382813c18.082031 0 31.425781-16.78125 27.253906-34.277344zm0 0" fill="#5a69b4"/><path d="m267.582031 166.085938c0 70.804687-32.144531 128.207031-95.167969 128.207031-63.023437 0-95.167968-57.402344-95.167968-128.207031 0-70.8125 32.144531-128.214844 95.167968-128.214844 63.023438 0 95.167969 57.402344 95.167969 128.214844" fill="#fee2d8"/><path d="m270.542969 147.578125c-1.238281-.125-2.476563.058594-3.6875.507813-5.058594-62.285157-36.855469-110.214844-94.441407-110.214844-57.585937 0-89.386718 47.929687-94.445312 110.214844-1.210938-.449219-2.445312-.632813-3.6875-.507813-8.136719.832031-13.414062 14.476563-11.78125 30.484375 1.636719 16.007812 9.5625 28.308594 17.699219 27.480469.226562-.023438.449219-.058594.667969-.101563 10.011718 51.550782 40.742187 88.851563 91.546874 88.851563 50.800782 0 81.53125-37.300781 91.542969-88.851563.222657.042969.441407.078125.667969.101563 8.136719.828125 16.0625-11.472657 17.699219-27.480469 1.632812-16.007812-3.640625-29.652344-11.78125-30.484375zm0 0" fill="#fee2d8"/><path d="m270.542969 147.578125c-1.238281-.125-2.476563.058594-3.6875.507813-5.058594-62.285157-36.855469-110.214844-94.441407-110.214844-6.046874 0-11.800781.535156-17.277343 1.550781 100.105469 29.605469 95.519531 215.601563 0 253.308594 5.476562 1.019531 11.230469 1.5625 17.277343 1.5625 50.800782 0 81.53125-37.304688 91.542969-88.851563.222657.039063.441407.078125.667969.101563 8.136719.828125 16.0625-11.472657 17.699219-27.480469 1.632812-16.007812-3.640625-29.652344-11.78125-30.484375zm0 0" fill="#ffd0c6"/><g fill="#ffd778"><path d="m236.277344 86.433594-63.863282-15.574219-63.863281 15.574219-27.402343 38.890625s69.867187 6.921875 91.265624-21.480469c21.402344 28.402344 91.265626 21.480469 91.265626 21.480469zm0 0"/><path d="m236.277344 86.433594-63.863282-15.574219-63.863281 15.574219-27.402343 38.890625s69.867187 6.921875 91.265624-21.480469c21.402344 28.402344 91.265626 21.480469 91.265626 21.480469zm0 0"/><path d="m197.582031 76.996094c-16.535156-4.03125-33.800781-4.03125-50.335937 0-24.949219 6.085937-46.84375 21-61.628906 41.984375l-4.46875 6.34375s69.863281 6.921875 91.265624-21.480469c21.398438 28.402344 91.261719 21.480469 91.261719 21.480469l-4.46875-6.34375c-14.78125-20.984375-36.675781-35.898438-61.625-41.984375zm0 0"/></g><path d="m259.210938 118.980469c-14.785157-20.984375-36.679688-35.898438-61.628907-41.984375-14.574219-3.554688-29.710937-3.972656-44.421875-1.261719 1.980469.367187 3.953125.785156 5.914063 1.261719 24.949219 6.085937 46.84375 21 61.628906 41.984375l4.335937 6.15625c20.574219 1.972656 38.640626.1875 38.640626.1875zm0 0" fill="#fec250"/><path d="m172.414062 81.292969c40.75 0 71.238282 16.894531 91.265626 44.03125-10.292969-50.828125-40.925782-87.453125-91.265626-87.453125-50.339843 0-80.972656 36.625-91.265624 87.453125 20.023437-27.136719 50.515624-44.03125 91.265624-44.03125zm0 0" fill="#5bb7d9"/><path d="m172.414062 37.871094c-6.160156 0-12.019531.554687-17.585937 1.609375 25.6875 6.238281 44.691406 23.652343 56.910156 47.855469 21.652344 7.179687 38.988281 20.4375 51.941407 37.988281-10.292969-50.828125-40.925782-87.453125-91.265626-87.453125zm0 0" fill="#489bc8"/></svg>