<svg height="512pt" viewBox="-69 0 511 512" width="512pt" xmlns="http://www.w3.org/2000/svg"><path d="m232.097656 361.582031c0 13.660157-8.121094 24.730469-18.144531 24.730469h-53.132813c-10.019531 0-18.144531-11.070312-18.144531-24.730469v-91.863281c0-13.660156 8.125-24.730469 18.144531-24.730469h53.132813c10.023437 0 18.144531 11.070313 18.144531 24.730469zm0 0" fill="#ffd0c6"/><path d="m373.25 474.984375-24.585938-102.808594c-7.71875-25.398437-33.660156-57.527343-75.175781-57.527343l-15.230469 7.019531-15.140624-7.019531h-11.003907l-.0625.09375c-21.292969 31.738281-68.148437 31.691406-89.371093-.09375h-11.554688l-14.898438 4.757812-15.128906-4.757812c-41.519531 0-64.558594 28.046874-75.175781 57.527343l-24.589844 102.808594c-4.519531 18.894531 9.9375 37.015625 29.527344 37.015625h70.46875l15.214844-10.101562 14.582031 10.101562h111.992188l14.535156-10.402344 15.261718 10.402344h70.8125c19.585938 0 34.042969-18.121094 29.523438-37.015625zm0 0" fill="#ff87ac"/><path d="m373.25 474.984375-24.585938-102.808594c-7.71875-25.398437-33.660156-57.527343-75.175781-57.527343h-41.375l-.019531.03125c40.742188.675781 66.222656 32.371093 73.859375 57.496093l24.585937 102.808594c4.519532 18.894531-9.9375 37.015625-29.523437 37.015625h42.710937c19.585938 0 34.042969-18.121094 29.523438-37.015625zm0 0" fill="#fd688a"/><path d="m290.394531 138.453125c0 76.460937-34.824219 138.453125-103.101562 138.453125-68.28125 0-103.105469-61.992188-103.105469-138.453125 0-76.464844 34.824219-138.453125 103.105469-138.453125 68.277343 0 103.101562 61.988281 103.101562 138.453125" fill="#fee2d8"/><path d="m293.605469 118.472656c-1.34375-.136718-2.683594.0625-3.992188.546875-5.484375-67.261719-39.933593-119.019531-102.320312-119.019531-62.390625 0-96.839844 51.757812-102.320313 119.019531-1.3125-.488281-2.652344-.683593-3.996094-.546875-8.816406.894532-14.53125 15.632813-12.761718 32.917969 1.773437 17.289063 10.359375 30.570313 19.175781 29.675781.246094-.027344.484375-.066406.722656-.113281 10.847657 55.667969 44.140625 95.953125 99.179688 95.953125 55.039062 0 88.332031-40.285156 99.179687-95.953125.238282.046875.476563.085937.722656.113281 8.816407.894532 17.402344-12.386718 19.175782-29.675781 1.769531-17.285156-3.949219-32.023437-12.765625-32.917969zm0 0" fill="#fee2d8"/><path d="m293.605469 118.472656c-1.34375-.136718-2.683594.0625-3.992188.546875-5.484375-67.261719-39.933593-119.019531-102.320312-119.019531-6.550781 0-12.785157.578125-18.71875 1.675781 108.453125 31.96875 103.488281 232.824219 0 273.542969 5.933593 1.097656 12.167969 1.6875 18.71875 1.6875 55.035156 0 88.332031-40.285156 99.175781-95.953125.238281.046875.480469.085937.726562.113281 8.816407.894532 17.402344-12.386718 19.171876-29.675781 1.773437-17.285156-3.945313-32.023437-12.761719-32.917969zm0 0" fill="#ffd0c6"/><path d="m101.324219 314.648438h29.800781v197.351562h-29.800781zm0 0" fill="#787ebe"/><path d="m131.574219 464.949219h-32.058594c-2.496094 0-4.515625-2.019531-4.515625-4.515625v-20.210938c0-2.492187 2.019531-4.515625 4.515625-4.515625h32.058594c2.496093 0 4.515625 2.023438 4.515625 4.515625v20.210938c0 2.496094-2.019532 4.515625-4.515625 4.515625zm0 0" fill="#7f8194"/><path d="m243.117188 314.648438h29.796874v197.351562h-29.796874zm0 0" fill="#787ebe"/><path d="m273.363281 464.949219h-32.058593c-2.492188 0-4.515626-2.019531-4.515626-4.515625v-20.210938c0-2.492187 2.023438-4.515625 4.515626-4.515625h32.058593c2.496094 0 4.519531 2.023438 4.519531 4.515625v20.210938c0 2.496094-2.023437 4.515625-4.519531 4.515625zm0 0" fill="#7f8194"/></svg>