<svg height="511pt" viewBox="-77 0 511 511.99987" width="511pt" xmlns="http://www.w3.org/2000/svg"><path d="m222.1875 367.738281c0 13.101563-7.773438 23.71875-17.363281 23.71875h-50.863281c-9.59375 0-17.367188-10.617187-17.367188-23.71875v-110.445312c0-13.101563 7.777344-23.71875 17.367188-23.71875h50.863281c9.589843 0 17.363281 10.617187 17.363281 23.71875zm0 0" fill="#d0996f"/><path d="m204.824219 233.574219h-26.050781c9.59375 0 17.367187 10.617187 17.367187 23.714843v110.449219c0 13.101563-7.773437 23.714844-17.367187 23.714844h26.050781c9.59375 0 17.367187-10.613281 17.367187-23.714844v-110.445312c-.003906-13.101563-7.777344-23.71875-17.367187-23.71875zm0 0" fill="#be8b5f"/><path d="m303.585938 146.578125c-1.738282-105.265625-65.128907-170.511719-183.21875-138.324219 0 0-22.839844 7.542969-32.945313 28.148438-5.902344 1.191406-11.742187 3.570312-16.996094 7.519531-63.09375 47.40625-70.625 167.964844 66.167969 272.734375v-59.363281c0-11.246094 5.730469-20.652344 13.417969-23.09375-2.460938-27.382813-5.355469-57.273438-8.28125-84.984375 11.210937 3.671875 24.726562 5.425781 41.148437 4.527344 83.367188-4.554688 75.5625 50.402343 101.601563 73.742187 0 0 19.878906-33.910156 19.105469-80.90625zm0 0" fill="#8a7e88"/><path d="m182.878906 153.742188c-49.796875 2.71875-72.953125-18.859376-85.671875-44.757813-2.761719-5.625-11.074219-4.542969-12.355469 1.59375-1.640624 7.867187-2.804687 16.066406-3.492187 24.523437-1.257813-.464843-2.539063-.652343-3.824219-.523437-8.4375.859375-13.910156 14.992187-12.214844 31.570313 1.695313 16.582031 9.914063 29.320312 18.351563 28.460937.234375-.023437.464844-.0625.695313-.105469 10.382812 53.390625 42.25 92.023438 94.933593 92.023438 47.949219 0 78.652344-32.003906 91.613281-78.003906-13.4375-25.625-22.953124-58.335938-88.035156-54.78125zm0 0" fill="#d0996f"/><path d="m357.304688 476.5-23.535157-98.601562c-7.390625-24.359376-32.222656-55.171876-71.960937-55.171876h-39.605469l-.058594.089844c-20.382812 30.4375-65.230469 30.390625-85.550781-.089844h-39.800781c-39.742188 0-61.796875 26.898438-71.960938 55.171876l-23.535156 98.601562c-4.324219 18.117188 9.511719 35.5 28.261719 35.5h299.484375c18.75 0 32.585937-17.382812 28.261719-35.5zm0 0" fill="#ff87ac"/><path d="m357.304688 476.5-23.535157-98.601562c-7.390625-24.359376-32.222656-55.171876-71.960937-55.171876h-39.605469l-.019531.027344c39 .648438 63.390625 31.046875 70.703125 55.140625l23.535156 98.601563c4.324219 18.121094-9.511719 35.503906-28.261719 35.503906h40.882813c18.75 0 32.585937-17.382812 28.261719-35.5zm0 0" fill="#fd688a"/><path d="m303.585938 146.578125c-1.574219-95.335937-53.722657-157.847656-151.277344-144.875 66.847656 10.265625 102.363281 66.460937 103.65625 144.875.1875 11.3125-.832032 21.855469-2.472656 31.363281 13 16.46875 17.363281 37.332032 30.988281 49.542969 0 0 19.878906-33.910156 19.105469-80.90625zm0 0" fill="#635562"/><path d="m248.800781 172.613281c.003907 5.984375-.230469 12.363281-.792969 19.203125-4.199218 51.199219-40.378906 86.558594-76.429687 94.421875 2.523437.1875 5.09375.289063 7.722656.289063 47.949219 0 78.652344-32.003906 91.613281-78.003906-6.234374-11.886719-11.628906-25.300782-22.113281-35.910157zm0 0" fill="#be8b5f"/></svg>