<svg height="512pt" viewBox="-75 0 512 512" width="512pt" xmlns="http://www.w3.org/2000/svg"><path d="m336.949219 376.609375c-7.472657-24.589844-32.574219-55.699219-72.757813-55.699219h-3.53125c-20.164062 0-36.515625-16.296875-36.519531-36.402344l-.003906-7.101562c0-13.226562-7.875-23.945312-17.59375-23.945312h-51.535157c-9.71875 0-17.597656 10.71875-17.597656 23.945312v7.085938c0 20.113281-16.351562 36.414062-36.519531 36.414062h-3.535156c-40.179688 0-62.480469 27.160156-72.753907 55.703125zm0 0" fill="#fee2d8"/><path d="m264.191406 320.910156h-3.53125c-20.164062 0-36.515625-16.296875-36.519531-36.402344l-.003906-7.101562c0-13.226562-7.875-23.945312-17.59375-23.945312h-44.765625c9.71875 0 17.597656 10.71875 17.597656 23.945312v7.101562c.007812 20.105469 16.355469 36.402344 36.519531 36.402344h3.535157c40.179687 0 65.285156 31.109375 72.753906 55.699219h44.765625c-7.472657-24.589844-32.578125-55.699219-72.757813-55.699219zm0 0" fill="#ffd0c6"/><path d="m100.890625 320.910156h-3.535156c-40.179688 0-62.480469 27.15625-72.753907 55.699219l-23.796874 99.546875c-4.371094 18.296875 9.617187 35.84375 28.574218 35.84375h302.789063c18.957031 0 32.949219-17.546875 28.574219-35.84375l-23.792969-99.546875c-7.472657-24.589844-32.578125-55.699219-72.757813-55.699219h-3.53125c-13.976562 0-26.113281-7.832031-32.25-19.328125l-33.3125 49.742188c-6.800781 10.152343-21.824218 10.136719-28.601562-.03125l-33.261719-49.894531c-6.105469 11.597656-18.292969 19.511718-32.34375 19.511718zm0 0" fill="#8a7e88"/><path d="m360.742188 476.15625-23.792969-99.546875c-7.472657-24.589844-32.578125-55.699219-72.757813-55.699219h-3.53125c-13.976562 0-26.113281-7.832031-32.25-19.328125l-12.964844 19.355469c39.457032.628906 64.136719 31.332031 71.527344 55.671875l23.796875 99.546875c4.375 18.296875-9.617187 35.84375-28.574219 35.84375h49.972657c18.957031 0 32.949219-17.546875 28.574219-35.84375zm0 0" fill="#635562"/><path d="m180.773438 0c-118.511719 0-138.578126 154.933594-141.519532 226.695312-.796875 19.488282 14.859375 35.699219 34.394532 35.699219h222.367187c20.082031 0 35.898437-17.082031 34.3125-37.070312-5.738281-72.34375-31.792969-225.324219-149.554687-225.324219zm0 0" fill="#e18f54"/><path d="m330.328125 225.324219c-5.738281-72.34375-31.792969-225.324219-149.554687-225.324219-14.398438 0-27.335938 2.304688-38.976563 6.453125 84.601563 29.78125 105.296875 155.378906 110.332031 218.871094 1.585938 19.988281-14.230468 37.074219-34.3125 37.074219h78.199219c20.082031-.003907 35.898437-17.085938 34.3125-37.074219zm0 0" fill="#d67a3a"/><path d="m283.664062 130.957031c-1.273437-.128906-4.460937 1.625-4.460937 1.625-68.253906 39.007813-139.304687 4.429688-175.566406-19.625-8.402344-5.570312-19.734375-.363281-20.972657 9.628907-.363281 2.933593-.667968 5.902343-.914062 8.902343-1.269531-.472656-2.566406-.664062-3.867188-.53125-8.53125.867188-14.0625 15.136719-12.347656 31.875 1.710938 16.738281 10.023438 29.597657 18.554688 28.734375.238281-.027344.46875-.0625.699218-.105468 10.496094 53.898437 42.71875 92.902343 95.984376 92.902343 53.265624 0 85.484374-39.003906 95.984374-92.902343.230469.042968.460938.078124.699219.105468 8.53125.863282 16.84375-11.996094 18.554688-28.734375 1.714843-16.738281-3.816407-31.007812-12.347657-31.875zm0 0" fill="#fee2d8"/><path d="m283.664062 130.957031c-1.273437-.128906-4.460937 1.625-4.460937 1.625-13.199219 7.542969-26.5 12.316407-39.636719 14.964844-.722656 57.28125-26.953125 115.519531-76.90625 135.183594 5.742188 1.0625 11.773438 1.632812 18.113282 1.632812 53.265624 0 85.484374-39.003906 95.984374-92.90625.230469.046875.460938.082031.699219.105469 8.53125.867188 16.84375-11.992188 18.554688-28.734375 1.714843-16.734375-3.816407-31.003906-12.347657-31.871094zm0 0" fill="#ffd0c6"/></svg>