<svg height="512pt" viewBox="-84 0 512 512.00071" width="512pt" xmlns="http://www.w3.org/2000/svg"><path d="m304.507812 160.382812c-11.234374-14.144531-3.761718-21.71875 6.265626-46.777343 10.023437-25.0625-4.542969-51.792969-20.382813-56.804688s-26.757813-5.011719-33-22.554687c-6.242187-17.539063-22.683594-15.035156-40.792969-12.527344-18.105468 2.503906-12.226562-14.035156-31.847656-20.050781-27.253906-8.351563-35.097656 17.027343-49.730469 23.390625-24.972656 10.859375-29.53125-11.09375-47.148437-4.585938-16.949219 6.257813-12.339844 10.851563-14.453125 34.65625-.929688 10.492188-3.199219 12.613282-10.53125 15.441406-12.777344 4.929688-21.339844 17.140626-21.714844 30.875-.140625 5.320313-.121094 11.019532.195313 16.75 1.25 22.554688-8.738282 12.53125-11.238282 26.3125-2.496094 13.785157-12.484375 13.785157 2.5 35.085938s3.328125 25.058594-1.875 39.886719c-8.902344 25.375-8.117187 31.324219 13.113282 53.878906 15.925781 16.921875 39.957031 13.363281 38.707031 40.722656-.746094 16.320313 29.8125 9.480469 21.644531 35.917969-3.046875 9.859375 39.542969 16.289062 69.511719 11.277344 29.964843-5.011719 44.949219 4.175781 58.6875-9.605469 13.734375-13.785156-2.5-35.503906 19.976562-44.273437 22.476563-8.769532 21.644531-17.542969 19.148438-41.476563-2.5-23.9375 14.566406-34.957031 31.863281-51.246094 17.292969-16.285156 12.339844-40.148437 1.101562-54.292969zm0 0" fill="#e18f54"/><path d="m304.507812 160.382812c-11.234374-14.144531-3.761718-21.71875 6.265626-46.777343 10.023437-25.0625-4.542969-51.792969-20.382813-56.804688s-26.757813-5.011719-33-22.554687c-6.242187-17.539063-22.683594-15.035156-40.792969-12.527344-18.105468 2.503906-12.226562-14.035156-31.847656-20.050781-23.886719-7.320313-32.863281 11.269531-44.570312 20.257812.710937-.035156 1.449218-.097656 2.246093-.210937 18.109375-2.503906 34.546875-5.011719 40.792969 12.53125 6.242188 17.542968 17.160156 17.542968 33 22.554687s30.40625 31.742188 20.378906 56.800781c-10.023437 25.0625-17.5 32.636719-6.261718 46.777344 11.238281 14.144532 16.191406 38.007813-1.101563 54.296875-17.296875 16.289063-34.363281 27.308594-31.867187 51.246094 2.5 23.933594 3.332031 32.703125-19.144532 41.476563-22.476562 8.769531-6.242187 30.488281-19.980468 44.269531-10.476563 10.519531-21.691407 7.664062-39.726563 7.945312 14.476563 3.546875 37.136719 4.6875 55.214844 1.664063 29.964843-5.011719 44.949219 4.175781 58.6875-9.605469 13.734375-13.785156-2.5-35.503906 19.976562-44.273437 22.476563-8.769532 21.644531-17.542969 19.148438-41.476563-2.5-23.9375 14.566406-34.957031 31.863281-51.246094 17.292969-16.285156 12.339844-40.148437 1.101562-54.292969zm0 0" fill="#d67a3a"/><path d="m212.695312 373.375c0 12.589844-7.460937 22.789062-16.664062 22.789062h-48.796875c-9.203125 0-16.664063-10.199218-16.664063-22.789062v-84.664062c0-12.589844 7.460938-22.789063 16.664063-22.789063h48.796875c9.203125 0 16.664062 10.199219 16.664062 22.789063zm0 0" fill="#ffd0c6"/><path d="m342.324219 477.886719-22.578125-94.753907c-7.089844-23.402343-30.914063-53.015624-69.042969-53.015624h-37.996094l-.058593.089843c-19.554688 29.25-62.582032 29.203125-82.074219-.089843h-38.1875c-38.128907 0-59.292969 25.851562-69.042969 53.015624l-22.578125 94.753907c-4.152344 17.410156 9.125 34.113281 27.113281 34.113281h287.328125c17.992188 0 31.265625-16.703125 27.117188-34.113281zm0 0" fill="#7f8194"/><path d="m342.324219 477.886719-22.578125-94.753907c-7.089844-23.402343-30.914063-53.015624-69.042969-53.015624h-37.996094l-.019531.03125c37.417969.621093 60.820312 29.832031 67.832031 52.984374l22.582031 94.753907c4.148438 17.410156-9.128906 34.113281-27.117187 34.113281h39.222656c17.992188 0 31.265625-16.703125 27.117188-34.113281zm0 0" fill="#6e7081"/><path d="m229.660156 491.28125h-12.714844c-18.578124 0-33.632812-15.058594-33.632812-33.632812v-28.664063c0-4.375 3.546875-7.925781 7.921875-7.925781h64.132813c4.375 0 7.925781 3.550781 7.925781 7.925781v28.664063c0 18.574218-15.058594 33.632812-33.632813 33.632812zm0 0" fill="#c6c1c5"/><path d="m263.292969 447.5v-18.503906c0-4.382813-3.542969-7.9375-7.914063-7.9375h-64.15625c-4.371094 0-7.914062 3.554687-7.914062 7.9375v18.503906c.496094-.078125 79.488281-.078125 79.984375 0zm0 0" fill="#a197a0"/><path d="m274.40625 151.929688c-5.132812 1.730468-13.746094-.4375-22.011719-6.164063-11.292969-7.832031-7.492187-22.554687-19.980469-15.039063-12.484374 7.519532-16.230468-2.503906-31.214843-13.78125-14.984375-11.277343-11.238281 10.023438-23.726563 21.300782-12.484375 11.277344-26.222656 2.503906-38.320312-6.265625-12.101563-8.769531-15.371094 10.023437-27.859375 17.542969-9.949219 5.988281-28.347657 6.859374-39.839844.476562-6.667969 3.039062-10.71875 15.402344-9.265625 29.65625 1.628906 15.933594 9.515625 28.175781 17.609375 27.351562.226563-.023437.445313-.058593.664063-.101562 9.960937 51.304688 40.539062 88.425781 91.085937 88.425781 50.542969 0 81.121094-37.121093 91.078125-88.425781.222656.042969.441406.078125.667969.101562 8.09375.824219 15.980469-11.417968 17.609375-27.351562 1.238281-12.148438-1.523438-22.925781-6.496094-27.726562zm0 0" fill="#fee2d8"/><path d="m274.40625 151.929688c-5.132812 1.730468-13.746094-.4375-22.011719-6.164063-11.292969-7.832031-7.492187-22.554687-19.980469-15.039063-2.882812 1.738282-5.296874 2.527344-7.496093 2.59375 10.652343 63.078126-13.832031 138.058594-70.5625 160.460938 5.449219 1.011719 11.175781 1.554688 17.191406 1.554688 50.542969 0 81.121094-37.125 91.078125-88.429688.222656.042969.441406.078125.667969.101562 8.09375.824219 15.980469-11.417968 17.609375-27.347656 1.238281-12.152344-1.523438-22.929687-6.496094-27.730468zm0 0" fill="#ffd0c6"/><g fill="#d67a3a"><path d="m171.632812 219.660156s12.90625-35.34375 30.800782-12.363281c12.800781 16.441406 34.15625 21.457031 34.15625 21.457031s-51.375 35.386719-64.957032-9.09375zm0 0"/><path d="m171.632812 219.660156s-12.90625-35.34375-30.800781-12.363281c-12.804687 16.441406-34.160156 21.457031-34.160156 21.457031s51.378906 35.386719 64.960937-9.09375zm0 0"/></g></svg>